<svg width="323" height="203" viewBox="0 0 323 203" fill="none" xmlns="http://www.w3.org/2000/svg">
<rect x="8" width="315" height="203" rx="8" fill="white"/>
<path d="M28.248 24.016V34H26.904V24.016H23.352V22.832H31.8V24.016H28.248ZM38.8312 34C38.3512 34 38.0046 33.872 37.7912 33.616C37.5886 33.36 37.4606 33.04 37.4072 32.656H37.3273C37.1459 33.168 36.8472 33.552 36.4312 33.808C36.0152 34.064 35.5192 34.192 34.9432 34.192C34.0686 34.192 33.3859 33.968 32.8952 33.52C32.4152 33.072 32.1752 32.464 32.1752 31.696C32.1752 30.9173 32.4579 30.32 33.0232 29.904C33.5992 29.488 34.4899 29.28 35.6952 29.28H37.3273V28.464C37.3273 27.8773 37.1672 27.4293 36.8472 27.12C36.5272 26.8107 36.0366 26.656 35.3752 26.656C34.8739 26.656 34.4526 26.768 34.1112 26.992C33.7806 27.216 33.5032 27.5147 33.2792 27.888L32.5112 27.168C32.7352 26.72 33.0926 26.3413 33.5832 26.032C34.0739 25.712 34.6926 25.552 35.4392 25.552C36.4419 25.552 37.2206 25.7973 37.7752 26.288C38.3299 26.7787 38.6072 27.4613 38.6072 28.336V32.88H39.5512V34H38.8312ZM35.1512 33.104C35.4712 33.104 35.7646 33.0667 36.0312 32.992C36.2979 32.9173 36.5272 32.8107 36.7192 32.672C36.9112 32.5333 37.0606 32.3733 37.1672 32.192C37.2739 32.0107 37.3273 31.8133 37.3273 31.6V30.24H35.6312C34.8952 30.24 34.3566 30.3467 34.0152 30.56C33.6846 30.7733 33.5192 31.0827 33.5192 31.488V31.824C33.5192 32.2293 33.6632 32.544 33.9512 32.768C34.2499 32.992 34.6499 33.104 35.1512 33.104ZM40.7941 34L43.8501 29.84L40.9221 25.744H42.4261L44.5221 28.816H44.5701L46.7461 25.744H48.1701L45.2581 29.744L48.2341 34H46.7301L44.5861 30.768H44.5381L42.2181 34H40.7941ZM56.3675 34C55.8875 34 55.5408 33.872 55.3275 33.616C55.1248 33.36 54.9968 33.04 54.9435 32.656H54.8635C54.6822 33.168 54.3835 33.552 53.9675 33.808C53.5515 34.064 53.0555 34.192 52.4795 34.192C51.6048 34.192 50.9222 33.968 50.4315 33.52C49.9515 33.072 49.7115 32.464 49.7115 31.696C49.7115 30.9173 49.9942 30.32 50.5595 29.904C51.1355 29.488 52.0262 29.28 53.2315 29.28H54.8635V28.464C54.8635 27.8773 54.7035 27.4293 54.3835 27.12C54.0635 26.8107 53.5728 26.656 52.9115 26.656C52.4102 26.656 51.9888 26.768 51.6475 26.992C51.3168 27.216 51.0395 27.5147 50.8155 27.888L50.0475 27.168C50.2715 26.72 50.6288 26.3413 51.1195 26.032C51.6102 25.712 52.2288 25.552 52.9755 25.552C53.9782 25.552 54.7568 25.7973 55.3115 26.288C55.8662 26.7787 56.1435 27.4613 56.1435 28.336V32.88H57.0875V34H56.3675ZM52.6875 33.104C53.0075 33.104 53.3008 33.0667 53.5675 32.992C53.8342 32.9173 54.0635 32.8107 54.2555 32.672C54.4475 32.5333 54.5968 32.3733 54.7035 32.192C54.8102 32.0107 54.8635 31.8133 54.8635 31.6V30.24H53.1675C52.4315 30.24 51.8928 30.3467 51.5515 30.56C51.2208 30.7733 51.0555 31.0827 51.0555 31.488V31.824C51.0555 32.2293 51.1995 32.544 51.4875 32.768C51.7862 32.992 52.1862 33.104 52.6875 33.104ZM68.8556 32.656H68.7916C68.2903 33.68 67.485 34.192 66.3756 34.192C65.8636 34.192 65.3996 34.0907 64.9836 33.888C64.5676 33.6853 64.2103 33.3973 63.9116 33.024C63.6236 32.6507 63.3996 32.1973 63.2396 31.664C63.0903 31.1307 63.0156 30.5333 63.0156 29.872C63.0156 29.2107 63.0903 28.6133 63.2396 28.08C63.3996 27.5467 63.6236 27.0933 63.9116 26.72C64.2103 26.3467 64.5676 26.0587 64.9836 25.856C65.3996 25.6533 65.8636 25.552 66.3756 25.552C66.9516 25.552 67.4423 25.68 67.8476 25.936C68.2636 26.1813 68.5783 26.5653 68.7916 27.088H68.8556V22.16H70.1356V34H68.8556V32.656ZM66.7276 33.04C67.0156 33.04 67.2876 33.0027 67.5436 32.928C67.8103 32.8533 68.0396 32.7467 68.2316 32.608C68.4236 32.4587 68.573 32.2827 68.6796 32.08C68.797 31.8667 68.8556 31.6267 68.8556 31.36V28.288C68.8556 28.064 68.797 27.856 68.6796 27.664C68.573 27.4613 68.4236 27.2907 68.2316 27.152C68.0396 27.0133 67.8103 26.9067 67.5436 26.832C67.2876 26.7467 67.0156 26.704 66.7276 26.704C66.0023 26.704 65.4316 26.9333 65.0156 27.392C64.5996 27.84 64.3916 28.432 64.3916 29.168V30.576C64.3916 31.312 64.5996 31.9093 65.0156 32.368C65.4316 32.816 66.0023 33.04 66.7276 33.04ZM76.4009 34.192C75.8355 34.192 75.3235 34.0907 74.8649 33.888C74.4169 33.6853 74.0275 33.3973 73.6969 33.024C73.3769 32.64 73.1262 32.1867 72.9449 31.664C72.7742 31.1307 72.6889 30.5333 72.6889 29.872C72.6889 29.2213 72.7742 28.6293 72.9449 28.096C73.1262 27.5627 73.3769 27.1093 73.6969 26.736C74.0275 26.352 74.4169 26.0587 74.8649 25.856C75.3235 25.6533 75.8355 25.552 76.4009 25.552C76.9555 25.552 77.4515 25.6533 77.8889 25.856C78.3262 26.0587 78.6995 26.3413 79.0089 26.704C79.3182 27.056 79.5529 27.4773 79.7129 27.968C79.8835 28.4587 79.9689 28.9973 79.9689 29.584V30.192H74.0329V30.576C74.0329 30.928 74.0862 31.2587 74.1929 31.568C74.3102 31.8667 74.4702 32.128 74.6729 32.352C74.8862 32.576 75.1422 32.752 75.4409 32.88C75.7502 33.008 76.0969 33.072 76.4809 33.072C77.0035 33.072 77.4569 32.9493 77.8409 32.704C78.2355 32.4587 78.5395 32.1067 78.7529 31.648L79.6649 32.304C79.3982 32.8693 78.9822 33.328 78.4169 33.68C77.8515 34.0213 77.1795 34.192 76.4009 34.192ZM76.4009 26.624C76.0489 26.624 75.7289 26.688 75.4409 26.816C75.1529 26.9333 74.9022 27.104 74.6889 27.328C74.4862 27.552 74.3262 27.8187 74.2089 28.128C74.0915 28.4267 74.0329 28.7573 74.0329 29.12V29.232H78.5929V29.056C78.5929 28.32 78.3902 27.7333 77.9849 27.296C77.5902 26.848 77.0622 26.624 76.4009 26.624ZM88.5634 34L85.6674 25.744H86.9474L88.3874 29.84L89.2834 32.656H89.3634L90.2594 29.84L91.7314 25.744H92.9634L90.0514 34H88.5634ZM100.914 34C100.434 34 100.087 33.872 99.8737 33.616C99.6711 33.36 99.5431 33.04 99.4897 32.656H99.4097C99.2284 33.168 98.9297 33.552 98.5137 33.808C98.0977 34.064 97.6017 34.192 97.0257 34.192C96.1511 34.192 95.4684 33.968 94.9777 33.52C94.4977 33.072 94.2577 32.464 94.2577 31.696C94.2577 30.9173 94.5404 30.32 95.1057 29.904C95.6817 29.488 96.5724 29.28 97.7777 29.28H99.4097V28.464C99.4097 27.8773 99.2497 27.4293 98.9297 27.12C98.6097 26.8107 98.1191 26.656 97.4577 26.656C96.9564 26.656 96.5351 26.768 96.1937 26.992C95.8631 27.216 95.5857 27.5147 95.3617 27.888L94.5937 27.168C94.8177 26.72 95.1751 26.3413 95.6657 26.032C96.1564 25.712 96.7751 25.552 97.5217 25.552C98.5244 25.552 99.3031 25.7973 99.8577 26.288C100.412 26.7787 100.69 27.4613 100.69 28.336V32.88H101.634V34H100.914ZM97.2337 33.104C97.5537 33.104 97.8471 33.0667 98.1137 32.992C98.3804 32.9173 98.6097 32.8107 98.8017 32.672C98.9937 32.5333 99.1431 32.3733 99.2497 32.192C99.3564 32.0107 99.4097 31.8133 99.4097 31.6V30.24H97.7137C96.9777 30.24 96.4391 30.3467 96.0977 30.56C95.7671 30.7733 95.6017 31.0827 95.6017 31.488V31.824C95.6017 32.2293 95.7457 32.544 96.0337 32.768C96.3324 32.992 96.7324 33.104 97.2337 33.104ZM103.901 34V25.744H105.181V27.264H105.261C105.41 26.8693 105.677 26.5173 106.061 26.208C106.445 25.8987 106.973 25.744 107.645 25.744H108.141V27.024H107.389C106.695 27.024 106.151 27.1573 105.757 27.424C105.373 27.68 105.181 28.0053 105.181 28.4V34H103.901ZM110.856 23.808C110.578 23.808 110.376 23.744 110.248 23.616C110.13 23.4773 110.072 23.3013 110.072 23.088V22.88C110.072 22.6667 110.13 22.496 110.248 22.368C110.376 22.2293 110.578 22.16 110.856 22.16C111.133 22.16 111.33 22.2293 111.448 22.368C111.576 22.496 111.64 22.6667 111.64 22.88V23.088C111.64 23.3013 111.576 23.4773 111.448 23.616C111.33 23.744 111.133 23.808 110.856 23.808ZM110.216 25.744H111.496V34H110.216V25.744ZM120.656 34C120.176 34 119.829 33.872 119.616 33.616C119.413 33.36 119.285 33.04 119.232 32.656H119.152C118.97 33.168 118.672 33.552 118.256 33.808C117.84 34.064 117.344 34.192 116.768 34.192C115.893 34.192 115.21 33.968 114.72 33.52C114.24 33.072 114 32.464 114 31.696C114 30.9173 114.282 30.32 114.848 29.904C115.424 29.488 116.314 29.28 117.52 29.28H119.152V28.464C119.152 27.8773 118.992 27.4293 118.672 27.12C118.352 26.8107 117.861 26.656 117.2 26.656C116.698 26.656 116.277 26.768 115.936 26.992C115.605 27.216 115.328 27.5147 115.104 27.888L114.336 27.168C114.56 26.72 114.917 26.3413 115.408 26.032C115.898 25.712 116.517 25.552 117.264 25.552C118.266 25.552 119.045 25.7973 119.6 26.288C120.154 26.7787 120.432 27.4613 120.432 28.336V32.88H121.376V34H120.656ZM116.976 33.104C117.296 33.104 117.589 33.0667 117.856 32.992C118.122 32.9173 118.352 32.8107 118.544 32.672C118.736 32.5333 118.885 32.3733 118.992 32.192C119.098 32.0107 119.152 31.8133 119.152 31.6V30.24H117.456C116.72 30.24 116.181 30.3467 115.84 30.56C115.509 30.7733 115.344 31.0827 115.344 31.488V31.824C115.344 32.2293 115.488 32.544 115.776 32.768C116.074 32.992 116.474 33.104 116.976 33.104ZM126.715 25.552C127.536 25.552 128.192 25.7333 128.683 26.096C129.184 26.448 129.557 26.9067 129.803 27.472L128.731 28.032C128.581 27.6053 128.336 27.2747 127.995 27.04C127.653 26.8053 127.227 26.688 126.715 26.688C126.331 26.688 125.995 26.752 125.707 26.88C125.419 26.9973 125.179 27.168 124.987 27.392C124.795 27.6053 124.651 27.8667 124.555 28.176C124.459 28.4747 124.411 28.8053 124.411 29.168V30.576C124.411 31.3013 124.603 31.8987 124.987 32.368C125.381 32.8267 125.957 33.056 126.715 33.056C127.749 33.056 128.496 32.576 128.955 31.616L129.883 32.24C129.637 32.784 129.28 33.232 128.811 33.584C128.341 33.9253 127.76 34.1227 127.067 34.176L126.907 34.976L126.955 35.024C127.157 34.96 127.365 34.928 127.579 34.928C127.888 34.928 128.144 35.0187 128.347 35.2C128.56 35.3813 128.667 35.6427 128.667 35.984C128.667 36.208 128.619 36.4053 128.523 36.576C128.427 36.7467 128.293 36.8853 128.123 36.992C127.963 37.0987 127.776 37.1787 127.563 37.232C127.349 37.2853 127.125 37.312 126.891 37.312C126.453 37.312 126.107 37.2373 125.851 37.088C125.605 36.9493 125.424 36.8053 125.307 36.656L125.915 36C126.011 36.1173 126.139 36.2187 126.299 36.304C126.459 36.4 126.656 36.448 126.891 36.448C127.093 36.448 127.259 36.4053 127.387 36.32C127.525 36.2453 127.595 36.1227 127.595 35.952C127.595 35.8027 127.525 35.6693 127.387 35.552C127.248 35.4453 126.955 35.36 126.507 35.296L126.059 35.232L126.267 34.176C125.232 34.0693 124.432 33.632 123.867 32.864C123.312 32.096 123.035 31.0987 123.035 29.872C123.035 29.2107 123.115 28.6133 123.275 28.08C123.445 27.5467 123.685 27.0933 123.995 26.72C124.315 26.3467 124.704 26.0587 125.163 25.856C125.621 25.6533 126.139 25.552 126.715 25.552ZM138.129 34C137.649 34 137.303 33.872 137.089 33.616C136.887 33.36 136.759 33.04 136.705 32.656H136.625C136.444 33.168 136.145 33.552 135.729 33.808C135.313 34.064 134.817 34.192 134.241 34.192C133.367 34.192 132.684 33.968 132.193 33.52C131.713 33.072 131.473 32.464 131.473 31.696C131.473 30.9173 131.756 30.32 132.321 29.904C132.897 29.488 133.788 29.28 134.993 29.28H136.625V28.464C136.625 27.8773 136.465 27.4293 136.145 27.12C135.825 26.8107 135.335 26.656 134.673 26.656C134.172 26.656 133.751 26.768 133.409 26.992C133.079 27.216 132.801 27.5147 132.577 27.888L131.809 27.168C132.033 26.72 132.391 26.3413 132.881 26.032C133.372 25.712 133.991 25.552 134.737 25.552C135.74 25.552 136.519 25.7973 137.073 26.288C137.628 26.7787 137.905 27.4613 137.905 28.336V32.88H138.849V34H138.129ZM134.449 33.104C134.769 33.104 135.063 33.0667 135.329 32.992C135.596 32.9173 135.825 32.8107 136.017 32.672C136.209 32.5333 136.359 32.3733 136.465 32.192C136.572 32.0107 136.625 31.8133 136.625 31.6V30.24H134.929C134.193 30.24 133.655 30.3467 133.313 30.56C132.983 30.7733 132.817 31.0827 132.817 31.488V31.824C132.817 32.2293 132.961 32.544 133.249 32.768C133.548 32.992 133.948 33.104 134.449 33.104ZM135.985 24.208C135.708 24.208 135.468 24.16 135.265 24.064C135.063 23.968 134.876 23.8773 134.705 23.792C134.449 23.6533 134.231 23.5573 134.049 23.504C133.879 23.44 133.724 23.408 133.585 23.408C133.404 23.408 133.244 23.4453 133.105 23.52C132.967 23.5947 132.817 23.7013 132.657 23.84L132.129 23.2C132.279 22.9867 132.476 22.7947 132.721 22.624C132.967 22.4427 133.276 22.352 133.649 22.352C133.927 22.352 134.167 22.4 134.369 22.496C134.572 22.592 134.759 22.6827 134.929 22.768C135.185 22.9067 135.399 23.008 135.569 23.072C135.751 23.1253 135.911 23.152 136.049 23.152C136.231 23.152 136.391 23.1147 136.529 23.04C136.668 22.9653 136.817 22.8587 136.977 22.72L137.505 23.36C137.356 23.5733 137.159 23.7707 136.913 23.952C136.668 24.1227 136.359 24.208 135.985 24.208ZM144.236 34.192C143.682 34.192 143.175 34.0907 142.716 33.888C142.258 33.6853 141.863 33.3973 141.532 33.024C141.212 32.64 140.962 32.1867 140.78 31.664C140.599 31.1307 140.508 30.5333 140.508 29.872C140.508 29.2213 140.599 28.6293 140.78 28.096C140.962 27.5627 141.212 27.1093 141.532 26.736C141.863 26.352 142.258 26.0587 142.716 25.856C143.175 25.6533 143.682 25.552 144.236 25.552C144.791 25.552 145.292 25.6533 145.74 25.856C146.199 26.0587 146.594 26.352 146.924 26.736C147.255 27.1093 147.511 27.5627 147.692 28.096C147.874 28.6293 147.964 29.2213 147.964 29.872C147.964 30.5333 147.874 31.1307 147.692 31.664C147.511 32.1867 147.255 32.64 146.924 33.024C146.594 33.3973 146.199 33.6853 145.74 33.888C145.292 34.0907 144.791 34.192 144.236 34.192ZM144.236 33.056C144.93 33.056 145.495 32.8427 145.932 32.416C146.37 31.9893 146.588 31.3387 146.588 30.464V29.28C146.588 28.4053 146.37 27.7547 145.932 27.328C145.495 26.9013 144.93 26.688 144.236 26.688C143.543 26.688 142.978 26.9013 142.54 27.328C142.103 27.7547 141.884 28.4053 141.884 29.28V30.464C141.884 31.3387 142.103 31.9893 142.54 32.416C142.978 32.8427 143.543 33.056 144.236 33.056ZM160.011 32.656H159.947C159.445 33.68 158.64 34.192 157.531 34.192C157.019 34.192 156.555 34.0907 156.139 33.888C155.723 33.6853 155.365 33.3973 155.067 33.024C154.779 32.6507 154.555 32.1973 154.395 31.664C154.245 31.1307 154.171 30.5333 154.171 29.872C154.171 29.2107 154.245 28.6133 154.395 28.08C154.555 27.5467 154.779 27.0933 155.067 26.72C155.365 26.3467 155.723 26.0587 156.139 25.856C156.555 25.6533 157.019 25.552 157.531 25.552C158.107 25.552 158.597 25.68 159.003 25.936C159.419 26.1813 159.733 26.5653 159.947 27.088H160.011V22.16H161.291V34H160.011V32.656ZM157.883 33.04C158.171 33.04 158.443 33.0027 158.699 32.928C158.965 32.8533 159.195 32.7467 159.387 32.608C159.579 32.4587 159.728 32.2827 159.835 32.08C159.952 31.8667 160.011 31.6267 160.011 31.36V28.288C160.011 28.064 159.952 27.856 159.835 27.664C159.728 27.4613 159.579 27.2907 159.387 27.152C159.195 27.0133 158.965 26.9067 158.699 26.832C158.443 26.7467 158.171 26.704 157.883 26.704C157.157 26.704 156.587 26.9333 156.171 27.392C155.755 27.84 155.547 28.432 155.547 29.168V30.576C155.547 31.312 155.755 31.9093 156.171 32.368C156.587 32.816 157.157 33.04 157.883 33.04ZM167.572 34.192C167.017 34.192 166.511 34.0907 166.052 33.888C165.593 33.6853 165.199 33.3973 164.868 33.024C164.548 32.64 164.297 32.1867 164.116 31.664C163.935 31.1307 163.844 30.5333 163.844 29.872C163.844 29.2213 163.935 28.6293 164.116 28.096C164.297 27.5627 164.548 27.1093 164.868 26.736C165.199 26.352 165.593 26.0587 166.052 25.856C166.511 25.6533 167.017 25.552 167.572 25.552C168.127 25.552 168.628 25.6533 169.076 25.856C169.535 26.0587 169.929 26.352 170.26 26.736C170.591 27.1093 170.847 27.5627 171.028 28.096C171.209 28.6293 171.3 29.2213 171.3 29.872C171.3 30.5333 171.209 31.1307 171.028 31.664C170.847 32.1867 170.591 32.64 170.26 33.024C169.929 33.3973 169.535 33.6853 169.076 33.888C168.628 34.0907 168.127 34.192 167.572 34.192ZM167.572 33.056C168.265 33.056 168.831 32.8427 169.268 32.416C169.705 31.9893 169.924 31.3387 169.924 30.464V29.28C169.924 28.4053 169.705 27.7547 169.268 27.328C168.831 26.9013 168.265 26.688 167.572 26.688C166.879 26.688 166.313 26.9013 165.876 27.328C165.439 27.7547 165.22 28.4053 165.22 29.28V30.464C165.22 31.3387 165.439 31.9893 165.876 32.416C166.313 32.8427 166.879 33.056 167.572 33.056ZM178.066 25.744H179.346V35.28C179.346 35.856 179.202 36.32 178.914 36.672C178.626 37.024 178.173 37.2 177.554 37.2H176.722V36.08H178.066V25.744ZM178.706 23.808C178.429 23.808 178.226 23.744 178.098 23.616C177.981 23.4773 177.922 23.3013 177.922 23.088V22.88C177.922 22.6667 177.981 22.496 178.098 22.368C178.226 22.2293 178.429 22.16 178.706 22.16C178.984 22.16 179.181 22.2293 179.298 22.368C179.426 22.496 179.49 22.6667 179.49 22.88V23.088C179.49 23.3013 179.426 23.4773 179.298 23.616C179.181 23.744 178.984 23.808 178.706 23.808ZM187.594 32.656H187.53C187.445 32.848 187.338 33.04 187.21 33.232C187.093 33.4133 186.944 33.5787 186.762 33.728C186.581 33.8667 186.362 33.9787 186.106 34.064C185.85 34.1493 185.552 34.192 185.21 34.192C184.357 34.192 183.68 33.92 183.178 33.376C182.677 32.8213 182.426 32.0427 182.426 31.04V25.744H183.706V30.816C183.706 32.2987 184.336 33.04 185.594 33.04C185.85 33.04 186.096 33.008 186.33 32.944C186.576 32.88 186.789 32.784 186.97 32.656C187.162 32.528 187.312 32.368 187.418 32.176C187.536 31.9733 187.594 31.7333 187.594 31.456V25.744H188.874V34H187.594V32.656ZM192.04 34V25.744H193.32V27.264H193.4C193.549 26.8693 193.816 26.5173 194.2 26.208C194.584 25.8987 195.112 25.744 195.784 25.744H196.28V27.024H195.528C194.835 27.024 194.291 27.1573 193.896 27.424C193.512 27.68 193.32 28.0053 193.32 28.4V34H192.04ZM201.397 34.192C200.842 34.192 200.336 34.0907 199.877 33.888C199.418 33.6853 199.024 33.3973 198.693 33.024C198.373 32.64 198.122 32.1867 197.941 31.664C197.76 31.1307 197.669 30.5333 197.669 29.872C197.669 29.2213 197.76 28.6293 197.941 28.096C198.122 27.5627 198.373 27.1093 198.693 26.736C199.024 26.352 199.418 26.0587 199.877 25.856C200.336 25.6533 200.842 25.552 201.397 25.552C201.952 25.552 202.453 25.6533 202.901 25.856C203.36 26.0587 203.754 26.352 204.085 26.736C204.416 27.1093 204.672 27.5627 204.853 28.096C205.034 28.6293 205.125 29.2213 205.125 29.872C205.125 30.5333 205.034 31.1307 204.853 31.664C204.672 32.1867 204.416 32.64 204.085 33.024C203.754 33.3973 203.36 33.6853 202.901 33.888C202.453 34.0907 201.952 34.192 201.397 34.192ZM201.397 33.056C202.09 33.056 202.656 32.8427 203.093 32.416C203.53 31.9893 203.749 31.3387 203.749 30.464V29.28C203.749 28.4053 203.53 27.7547 203.093 27.328C202.656 26.9013 202.09 26.688 201.397 26.688C200.704 26.688 200.138 26.9013 199.701 27.328C199.264 27.7547 199.045 28.4053 199.045 29.28V30.464C199.045 31.3387 199.264 31.9893 199.701 32.416C200.138 32.8427 200.704 33.056 201.397 33.056ZM210.15 34.192C209.382 34.192 208.737 34.048 208.214 33.76C207.702 33.4613 207.259 33.0667 206.886 32.576L207.798 31.84C208.118 32.2453 208.475 32.56 208.87 32.784C209.265 32.9973 209.723 33.104 210.246 33.104C210.79 33.104 211.211 32.9867 211.51 32.752C211.819 32.5173 211.974 32.1867 211.974 31.76C211.974 31.44 211.867 31.168 211.654 30.944C211.451 30.7093 211.078 30.5493 210.534 30.464L209.878 30.368C209.494 30.3147 209.142 30.2347 208.822 30.128C208.502 30.0107 208.219 29.8613 207.974 29.68C207.739 29.488 207.553 29.2533 207.414 28.976C207.286 28.6987 207.222 28.368 207.222 27.984C207.222 27.5787 207.297 27.2267 207.446 26.928C207.595 26.6187 207.798 26.3627 208.054 26.16C208.321 25.9573 208.635 25.808 208.998 25.712C209.361 25.6053 209.75 25.552 210.166 25.552C210.838 25.552 211.398 25.6693 211.846 25.904C212.305 26.1387 212.705 26.464 213.046 26.88L212.198 27.648C212.017 27.392 211.75 27.1627 211.398 26.96C211.046 26.7467 210.603 26.64 210.07 26.64C209.537 26.64 209.131 26.7573 208.854 26.992C208.587 27.216 208.454 27.5253 208.454 27.92C208.454 28.3253 208.587 28.6187 208.854 28.8C209.131 28.9813 209.526 29.1147 210.038 29.2L210.678 29.296C211.595 29.4347 212.246 29.7013 212.63 30.096C213.014 30.48 213.206 30.9867 213.206 31.616C213.206 32.416 212.934 33.0453 212.39 33.504C211.846 33.9627 211.099 34.192 210.15 34.192Z" fill="#263238"/>
<path d="M25.302 47.228H29.32C30.132 47.228 30.7667 47.4567 31.224 47.914C31.6907 48.3713 31.924 48.9827 31.924 49.748C31.924 50.112 31.8727 50.42 31.77 50.672C31.6673 50.924 31.5367 51.134 31.378 51.302C31.2193 51.4607 31.0467 51.582 30.86 51.666C30.6733 51.7407 30.5007 51.792 30.342 51.82V51.904C30.5193 51.9133 30.7153 51.96 30.93 52.044C31.154 52.128 31.364 52.2633 31.56 52.45C31.756 52.6273 31.9193 52.8607 32.05 53.15C32.19 53.43 32.26 53.7707 32.26 54.172C32.26 54.5733 32.1947 54.9467 32.064 55.292C31.9427 55.6373 31.77 55.936 31.546 56.188C31.322 56.44 31.056 56.6407 30.748 56.79C30.44 56.93 30.104 57 29.74 57H25.302V47.228ZM26.478 55.964H29.376C29.88 55.964 30.2767 55.838 30.566 55.586C30.8553 55.3247 31 54.9467 31 54.452V53.976C31 53.4813 30.8553 53.108 30.566 52.856C30.2767 52.5947 29.88 52.464 29.376 52.464H26.478V55.964ZM26.478 51.456H29.18C29.6467 51.456 30.0107 51.3393 30.272 51.106C30.5333 50.8727 30.664 50.5367 30.664 50.098V49.622C30.664 49.1833 30.5333 48.8473 30.272 48.614C30.0107 48.3807 29.6467 48.264 29.18 48.264H26.478V51.456ZM34.5865 57V49.776H35.7065V51.106H35.7765C35.9072 50.7607 36.1405 50.4527 36.4765 50.182C36.8125 49.9113 37.2745 49.776 37.8625 49.776H38.2965V50.896H37.6385C37.0318 50.896 36.5558 51.0127 36.2105 51.246C35.8745 51.47 35.7065 51.7547 35.7065 52.1V57H34.5865ZM45.1724 57C44.7524 57 44.4491 56.888 44.2624 56.664C44.0851 56.44 43.9731 56.16 43.9264 55.824H43.8564C43.6978 56.272 43.4364 56.608 43.0724 56.832C42.7084 57.056 42.2744 57.168 41.7704 57.168C41.0051 57.168 40.4078 56.972 39.9784 56.58C39.5584 56.188 39.3484 55.656 39.3484 54.984C39.3484 54.3027 39.5958 53.78 40.0904 53.416C40.5944 53.052 41.3738 52.87 42.4284 52.87H43.8564V52.156C43.8564 51.6427 43.7164 51.2507 43.4364 50.98C43.1564 50.7093 42.7271 50.574 42.1484 50.574C41.7098 50.574 41.3411 50.672 41.0424 50.868C40.7531 51.064 40.5104 51.3253 40.3144 51.652L39.6424 51.022C39.8384 50.63 40.1511 50.2987 40.5804 50.028C41.0098 49.748 41.5511 49.608 42.2044 49.608C43.0818 49.608 43.7631 49.8227 44.2484 50.252C44.7338 50.6813 44.9764 51.2787 44.9764 52.044V56.02H45.8024V57H45.1724ZM41.9524 56.216C42.2324 56.216 42.4891 56.1833 42.7224 56.118C42.9558 56.0527 43.1564 55.9593 43.3244 55.838C43.4924 55.7167 43.6231 55.5767 43.7164 55.418C43.8098 55.2593 43.8564 55.0867 43.8564 54.9V53.71H42.3724C41.7284 53.71 41.2571 53.8033 40.9584 53.99C40.6691 54.1767 40.5244 54.4473 40.5244 54.802V55.096C40.5244 55.4507 40.6504 55.726 40.9024 55.922C41.1638 56.118 41.5138 56.216 41.9524 56.216ZM49.8209 57.168C49.1489 57.168 48.5843 57.042 48.1269 56.79C47.6789 56.5287 47.2916 56.1833 46.9649 55.754L47.7629 55.11C48.0429 55.4647 48.3556 55.74 48.7009 55.936C49.0463 56.1227 49.4476 56.216 49.9049 56.216C50.3809 56.216 50.7496 56.1133 51.0109 55.908C51.2816 55.7027 51.4169 55.4133 51.4169 55.04C51.4169 54.76 51.3236 54.522 51.1369 54.326C50.9596 54.1207 50.6329 53.9807 50.1569 53.906L49.5829 53.822C49.2469 53.7753 48.9389 53.7053 48.6589 53.612C48.3789 53.5093 48.1316 53.3787 47.9169 53.22C47.7116 53.052 47.5483 52.8467 47.4269 52.604C47.3149 52.3613 47.2589 52.072 47.2589 51.736C47.2589 51.3813 47.3243 51.0733 47.4549 50.812C47.5856 50.5413 47.7629 50.3173 47.9869 50.14C48.2203 49.9627 48.4956 49.832 48.8129 49.748C49.1303 49.6547 49.4709 49.608 49.8349 49.608C50.4229 49.608 50.9129 49.7107 51.3049 49.916C51.7063 50.1213 52.0563 50.406 52.3549 50.77L51.6129 51.442C51.4543 51.218 51.2209 51.0173 50.9129 50.84C50.6049 50.6533 50.2176 50.56 49.7509 50.56C49.2843 50.56 48.9296 50.6627 48.6869 50.868C48.4536 51.064 48.3369 51.3347 48.3369 51.68C48.3369 52.0347 48.4536 52.2913 48.6869 52.45C48.9296 52.6087 49.2749 52.7253 49.7229 52.8L50.2829 52.884C51.0856 53.0053 51.6549 53.2387 51.9909 53.584C52.3269 53.92 52.4949 54.3633 52.4949 54.914C52.4949 55.614 52.2569 56.1647 51.7809 56.566C51.3049 56.9673 50.6516 57.168 49.8209 57.168ZM55.2832 48.082C55.0405 48.082 54.8632 48.026 54.7512 47.914C54.6485 47.7927 54.5972 47.6387 54.5972 47.452V47.27C54.5972 47.0833 54.6485 46.934 54.7512 46.822C54.8632 46.7007 55.0405 46.64 55.2832 46.64C55.5259 46.64 55.6985 46.7007 55.8012 46.822C55.9132 46.934 55.9692 47.0833 55.9692 47.27V47.452C55.9692 47.6387 55.9132 47.7927 55.8012 47.914C55.6985 48.026 55.5259 48.082 55.2832 48.082ZM54.7232 49.776H55.8432V57H54.7232V49.776ZM59.6632 57C59.2712 57 58.9725 56.8927 58.7672 56.678C58.5712 56.454 58.4732 56.174 58.4732 55.838V46.64H59.5932V56.02H60.6572V57H59.6632Z" fill="#607D8B"/>
<g opacity="0.16" clip-path="url(#clip0)">
<path d="M23.9784 121.244L8 107.748V203H567.243V127.148L551.264 116.063L535.286 144.765L519.308 141.077L503.329 162.574L487.351 154.139L471.373 179.564L455.394 165.634L439.416 190.963L423.437 169.032L407.459 176.624L391.481 133.896L375.502 127.317L359.524 142.331L343.546 147.391L327.567 120.4L311.589 133.896L295.611 140.403L279.632 129.679L263.654 162.574L247.675 152.452L231.697 176.913L215.719 140.644L199.74 167.635L183.762 188.721L167.784 148.235L151.805 155.826L135.827 130.522L119.849 140.644L103.87 117.87L87.8918 152.452L71.9135 171.008L55.9351 132.209L39.9567 142.331L23.9784 121.244Z" fill="#FFB800"/>
</g>
<g clip-path="url(#clip1)">
<path d="M8 107.748L23.9784 121.244L39.9567 142.331L55.9351 132.209L71.9135 171.008L87.8918 152.452L103.87 117.87L119.849 140.644L135.827 130.522L151.805 155.826L167.784 148.235L183.762 188.721L199.74 167.635L215.719 140.644L231.697 176.913L247.675 152.452L263.654 162.574L279.632 129.679L295.611 140.403L311.589 133.896L327.567 120.4L343.546 147.391L359.524 142.331L375.502 127.317L391.481 133.896L407.459 176.624L423.437 169.032L439.416 190.963L455.394 165.634L471.373 179.564L487.351 154.139L503.329 162.574L519.308 141.077L535.286 144.765L551.264 116.063L567.243 127.148" stroke="#855CF8" stroke-width="0.665765"/>
</g>
<rect x="20.9932" y="118.07" width="5.66577" height="5.66577" rx="2.83288" fill="#855CF8" stroke="white" stroke-width="0.665765"/>
<rect x="36.9716" y="139.135" width="5.66577" height="5.66577" rx="2.83288" fill="#855CF8" stroke="white" stroke-width="0.665765"/>
<rect x="52.95" y="129.104" width="5.66577" height="5.66577" rx="2.83288" fill="#855CF8" stroke="white" stroke-width="0.665765"/>
<rect x="68.9283" y="167.892" width="5.66577" height="5.66577" rx="2.83288" fill="#855CF8" stroke="white" stroke-width="0.665765"/>
<rect x="5.01483" y="104.36" width="5.66577" height="5.66577" rx="2.83288" fill="#855CF8" stroke="white" stroke-width="0.665765"/>
<rect x="100.885" y="114.726" width="5.66577" height="5.66577" rx="2.83288" fill="#855CF8" stroke="white" stroke-width="0.665765"/>
<rect x="116.863" y="137.798" width="5.66577" height="5.66577" rx="2.83288" fill="#855CF8" stroke="white" stroke-width="0.665765"/>
<rect x="132.842" y="127.767" width="5.66577" height="5.66577" rx="2.83288" fill="#855CF8" stroke="white" stroke-width="0.665765"/>
<rect x="148.82" y="152.845" width="5.66577" height="5.66577" rx="2.83288" fill="#855CF8" stroke="white" stroke-width="0.665765"/>
<rect x="84.9067" y="149.501" width="5.66577" height="5.66577" rx="2.83288" fill="#855CF8" stroke="white" stroke-width="0.665765"/>
<rect x="180.777" y="185.613" width="5.66577" height="5.66577" rx="2.83288" fill="#855CF8" stroke="white" stroke-width="0.665765"/>
<rect x="196.755" y="164.548" width="5.66577" height="5.66577" rx="2.83288" fill="#855CF8" stroke="white" stroke-width="0.665765"/>
<rect x="212.734" y="137.798" width="5.66577" height="5.66577" rx="2.83288" fill="#855CF8" stroke="white" stroke-width="0.665765"/>
<rect x="228.712" y="173.91" width="5.66577" height="5.66577" rx="2.83288" fill="#855CF8" stroke="white" stroke-width="0.665765"/>
<rect x="244.69" y="149.501" width="5.66577" height="5.66577" rx="2.83288" fill="#855CF8" stroke="white" stroke-width="0.665765"/>
<rect x="164.798" y="145.488" width="5.66577" height="5.66577" rx="2.83288" fill="#855CF8" stroke="white" stroke-width="0.665765"/>
<defs>
<clipPath id="clip0">
<rect width="315" height="95.2516" fill="white" transform="translate(8 107.748)"/>
</clipPath>
<clipPath id="clip1">
<rect width="315" height="83.2142" fill="white" transform="translate(8 107.748)"/>
</clipPath>
</defs>
</svg>
