<svg width="316" height="348" viewBox="0 0 316 348" fill="none" xmlns="http://www.w3.org/2000/svg">
<rect width="316" height="413" rx="9.03012" fill="white"/>
<path d="M19.7398 38.0602V25.4542H24.7606C25.8924 25.4542 26.7593 25.7793 27.3613 26.4294C27.9753 27.0676 28.2823 27.9465 28.2823 29.0662C28.2823 30.186 27.9753 31.0709 27.3613 31.7211C26.7593 32.3592 25.8924 32.6783 24.7606 32.6783H21.2569V38.0602H19.7398ZM21.2569 31.3418H24.7606C25.3626 31.3418 25.8261 31.1853 26.1512 30.8723C26.4884 30.5592 26.6569 30.1137 26.6569 29.5358V28.5967C26.6569 28.0187 26.4884 27.5733 26.1512 27.2602C25.8261 26.9472 25.3626 26.7907 24.7606 26.7907H21.2569V31.3418ZM37.6408 38.0602C37.099 38.0602 36.7077 37.9158 36.4669 37.6268C36.2381 37.3378 36.0936 36.9766 36.0334 36.5432H35.9431C35.7384 37.1211 35.4013 37.5546 34.9318 37.8435C34.4622 38.1325 33.9023 38.277 33.2521 38.277C32.2649 38.277 31.4943 38.0241 30.9404 37.5184C30.3986 37.0127 30.1277 36.3265 30.1277 35.4596C30.1277 34.5806 30.4468 33.9064 31.0849 33.4368C31.7351 32.9673 32.7404 32.7325 34.101 32.7325H35.9431V31.8114C35.9431 31.1492 35.7625 30.6435 35.4013 30.2943C35.0401 29.9452 34.4863 29.7706 33.7398 29.7706C33.1739 29.7706 32.6983 29.897 32.313 30.1499C31.9398 30.4027 31.6267 30.7398 31.3739 31.1612L30.507 30.3485C30.7598 29.8428 31.1632 29.4154 31.717 29.0662C32.2709 28.705 32.9692 28.5244 33.812 28.5244C34.9438 28.5244 35.8227 28.8014 36.4488 29.3552C37.0749 29.9091 37.3879 30.6796 37.3879 31.6669V36.796H38.4535V38.0602H37.6408ZM33.4869 37.0489C33.8481 37.0489 34.1792 37.0067 34.4802 36.9224C34.7812 36.8382 35.0401 36.7178 35.2568 36.5612C35.4736 36.4047 35.6421 36.2241 35.7625 36.0194C35.8829 35.8148 35.9431 35.592 35.9431 35.3512V33.8161H34.0287C33.198 33.8161 32.5899 33.9365 32.2047 34.1773C31.8314 34.4181 31.6448 34.7673 31.6448 35.2248V35.604C31.6448 36.0616 31.8073 36.4168 32.1324 36.6696C32.4695 36.9224 32.921 37.0489 33.4869 37.0489ZM48.8685 39.0897C48.8685 40.0529 48.4892 40.7572 47.7307 41.2027C46.9842 41.6602 45.8584 41.889 44.3534 41.889C42.8966 41.889 41.8491 41.6904 41.2109 41.293C40.5728 40.8957 40.2537 40.3298 40.2537 39.5954C40.2537 39.0897 40.3862 38.6924 40.6511 38.4034C40.9159 38.1265 41.2772 37.9218 41.7347 37.7893V37.5907C41.1808 37.3258 40.9039 36.8923 40.9039 36.2903C40.9039 35.8208 41.0544 35.4656 41.3554 35.2248C41.6564 34.9719 42.0417 34.7853 42.5113 34.6649V34.5927C41.9574 34.3278 41.524 33.9485 41.2109 33.4549C40.9099 32.9612 40.7594 32.3893 40.7594 31.7392C40.7594 31.2696 40.8437 30.8361 41.0123 30.4388C41.1808 30.0415 41.4156 29.7044 41.7166 29.4274C42.0297 29.1385 42.3969 28.9157 42.8183 28.7592C43.2517 28.6027 43.7333 28.5244 44.2631 28.5244C44.9253 28.5244 45.5153 28.6448 46.033 28.8856V28.7231C46.033 28.3619 46.1173 28.0669 46.2859 27.8381C46.4544 27.5973 46.7313 27.4769 47.1166 27.4769H48.5073V28.7412H46.7374V29.3371C47.0745 29.6261 47.3334 29.9753 47.514 30.3846C47.7066 30.782 47.8029 31.2335 47.8029 31.7392C47.8029 32.2087 47.7186 32.6422 47.5501 33.0395C47.3815 33.4368 47.1407 33.78 46.8277 34.0689C46.5267 34.3459 46.1594 34.5626 45.726 34.7191C45.2925 34.8756 44.8109 34.9539 44.2812 34.9539C43.9802 34.9539 43.6792 34.9238 43.3782 34.8636C43.0651 34.9479 42.7822 35.0743 42.5293 35.2428C42.2765 35.3994 42.1501 35.6221 42.1501 35.9111C42.1501 36.188 42.2825 36.3746 42.5474 36.4709C42.8123 36.5673 43.1554 36.6154 43.5768 36.6154H45.5634C46.7193 36.6154 47.5561 36.8382 48.0738 37.2837C48.6036 37.7171 48.8685 38.3191 48.8685 39.0897ZM47.514 39.198C47.514 38.8248 47.3695 38.5238 47.0805 38.295C46.8036 38.0783 46.3039 37.9699 45.5815 37.9699H42.4751C41.8972 38.2348 41.6083 38.6562 41.6083 39.2342C41.6083 39.6435 41.7588 39.9927 42.0598 40.2817C42.3728 40.5706 42.8966 40.7151 43.631 40.7151H44.9675C45.7742 40.7151 46.4002 40.5887 46.8457 40.3358C47.2912 40.083 47.514 39.7037 47.514 39.198ZM44.2812 33.798C44.8952 33.798 45.3828 33.6535 45.744 33.3646C46.1053 33.0636 46.2859 32.606 46.2859 31.992V31.4863C46.2859 30.8723 46.1053 30.4208 45.744 30.1318C45.3828 29.8308 44.8952 29.6803 44.2812 29.6803C43.6671 29.6803 43.1795 29.8308 42.8183 30.1318C42.4571 30.4208 42.2765 30.8723 42.2765 31.4863V31.992C42.2765 32.606 42.4571 33.0636 42.8183 33.3646C43.1795 33.6535 43.6671 33.798 44.2812 33.798ZM57.7702 38.0602C57.2284 38.0602 56.8371 37.9158 56.5963 37.6268C56.3675 37.3378 56.223 36.9766 56.1628 36.5432H56.0725C55.8678 37.1211 55.5307 37.5546 55.0612 37.8435C54.5916 38.1325 54.0317 38.277 53.3816 38.277C52.3943 38.277 51.6237 38.0241 51.0698 37.5184C50.528 37.0127 50.2571 36.3265 50.2571 35.4596C50.2571 34.5806 50.5762 33.9064 51.2143 33.4368C51.8645 32.9673 52.8698 32.7325 54.2304 32.7325H56.0725V31.8114C56.0725 31.1492 55.8919 30.6435 55.5307 30.2943C55.1695 29.9452 54.6157 29.7706 53.8692 29.7706C53.3033 29.7706 52.8277 29.897 52.4424 30.1499C52.0692 30.4027 51.7561 30.7398 51.5033 31.1612L50.6364 30.3485C50.8892 29.8428 51.2926 29.4154 51.8464 29.0662C52.4003 28.705 53.0986 28.5244 53.9414 28.5244C55.0732 28.5244 55.9521 28.8014 56.5782 29.3552C57.2043 29.9091 57.5174 30.6796 57.5174 31.6669V36.796H58.5829V38.0602H57.7702ZM53.6163 37.0489C53.9775 37.0489 54.3086 37.0067 54.6097 36.9224C54.9107 36.8382 55.1695 36.7178 55.3862 36.5612C55.603 36.4047 55.7715 36.2241 55.8919 36.0194C56.0123 35.8148 56.0725 35.592 56.0725 35.3512V33.8161H54.1581C53.3274 33.8161 52.7193 33.9365 52.3341 34.1773C51.9608 34.4181 51.7742 34.7673 51.7742 35.2248V35.604C51.7742 36.0616 51.9367 36.4168 52.2618 36.6696C52.5989 36.9224 53.0505 37.0489 53.6163 37.0489ZM61.1417 38.0602V28.7412H62.5865V30.2582H62.6587C62.7671 30.0174 62.8875 29.7947 63.0199 29.59C63.1644 29.3733 63.333 29.1866 63.5256 29.0301C63.7303 28.8736 63.9651 28.7532 64.23 28.6689C64.4949 28.5726 64.8079 28.5244 65.1691 28.5244C65.7832 28.5244 66.349 28.6749 66.8668 28.9759C67.3845 29.2649 67.7698 29.7465 68.0226 30.4208H68.0587C68.2273 29.9151 68.5404 29.4756 68.9979 29.1024C69.4674 28.7171 70.0996 28.5244 70.8942 28.5244C71.8454 28.5244 72.5858 28.8375 73.1156 29.4636C73.6574 30.0776 73.9283 30.9505 73.9283 32.0823V38.0602H72.4835V32.3351C72.4835 31.5044 72.321 30.8783 71.9959 30.4569C71.6708 30.0355 71.1531 29.8248 70.4427 29.8248C70.1537 29.8248 69.8768 29.8609 69.6119 29.9331C69.3591 30.0054 69.1303 30.1137 68.9256 30.2582C68.721 30.4027 68.5584 30.5893 68.438 30.8181C68.3176 31.0348 68.2574 31.2937 68.2574 31.5947V38.0602H66.8126V32.3351C66.8126 31.5044 66.65 30.8783 66.325 30.4569C65.9999 30.0355 65.4942 29.8248 64.8079 29.8248C64.5189 29.8248 64.242 29.8609 63.9771 29.9331C63.7122 30.0054 63.4775 30.1137 63.2728 30.2582C63.0681 30.4027 62.8995 30.5893 62.7671 30.8181C62.6467 31.0348 62.5865 31.2937 62.5865 31.5947V38.0602H61.1417ZM80.9095 38.277C80.2713 38.277 79.6934 38.1626 79.1757 37.9338C78.67 37.7051 78.2305 37.38 77.8573 36.9586C77.4961 36.5251 77.2131 36.0134 77.0084 35.4234C76.8158 34.8214 76.7195 34.1472 76.7195 33.4007C76.7195 32.6662 76.8158 31.998 77.0084 31.396C77.2131 30.794 77.4961 30.2823 77.8573 29.8609C78.2305 29.4274 78.67 29.0963 79.1757 28.8676C79.6934 28.6388 80.2713 28.5244 80.9095 28.5244C81.5355 28.5244 82.0954 28.6388 82.5891 28.8676C83.0827 29.0963 83.5041 29.4154 83.8533 29.8248C84.2024 30.2221 84.4673 30.6977 84.6479 31.2515C84.8406 31.8054 84.9369 32.4134 84.9369 33.0756V33.7619H78.2365V34.1954C78.2365 34.5927 78.2967 34.9659 78.4171 35.3151C78.5496 35.6522 78.7302 35.9472 78.9589 36.2C79.1998 36.4529 79.4887 36.6515 79.8258 36.796C80.175 36.9405 80.5663 37.0127 80.9998 37.0127C81.5897 37.0127 82.1014 36.8743 82.5349 36.5974C82.9804 36.3204 83.3235 35.9231 83.5643 35.4054L84.5937 36.1459C84.2927 36.784 83.8232 37.3017 83.185 37.699C82.5469 38.0843 81.7884 38.277 80.9095 38.277ZM80.9095 29.7345C80.5121 29.7345 80.1509 29.8067 79.8258 29.9512C79.5008 30.0836 79.2178 30.2763 78.977 30.5291C78.7482 30.782 78.5676 31.083 78.4352 31.4321C78.3028 31.7693 78.2365 32.1425 78.2365 32.5519V32.6783H83.3837V32.4796C83.3837 31.6489 83.1549 30.9866 82.6974 30.493C82.2519 29.9873 81.6559 29.7345 80.9095 29.7345ZM87.8144 38.0602V28.7412H89.2592V30.2582H89.3315C89.5602 29.7285 89.8793 29.307 90.2886 28.994C90.7101 28.681 91.2699 28.5244 91.9683 28.5244C92.9315 28.5244 93.69 28.8375 94.2438 29.4636C94.8097 30.0776 95.0927 30.9505 95.0927 32.0823V38.0602H93.6479V32.3351C93.6479 30.6616 92.9435 29.8248 91.5348 29.8248C91.2458 29.8248 90.9629 29.8609 90.686 29.9331C90.4211 30.0054 90.1803 30.1137 89.9636 30.2582C89.7468 30.4027 89.5723 30.5893 89.4398 30.8181C89.3194 31.0348 89.2592 31.2937 89.2592 31.5947V38.0602H87.8144ZM100.635 38.0602C100.129 38.0602 99.7437 37.9218 99.4788 37.6449C99.2259 37.3559 99.0995 36.9826 99.0995 36.5251V30.0054H97.5644V28.7412H98.4313C98.7443 28.7412 98.955 28.681 99.0634 28.5606C99.1838 28.4281 99.244 28.2054 99.244 27.8923V26.1585H100.544V28.7412H102.585V30.0054H100.544V36.796H102.441V38.0602H100.635ZM108.855 38.277C108.229 38.277 107.657 38.1626 107.14 37.9338C106.622 37.7051 106.176 37.38 105.803 36.9586C105.442 36.5251 105.159 36.0134 104.954 35.4234C104.75 34.8214 104.647 34.1472 104.647 33.4007C104.647 32.6662 104.75 31.998 104.954 31.396C105.159 30.794 105.442 30.2823 105.803 29.8609C106.176 29.4274 106.622 29.0963 107.14 28.8676C107.657 28.6388 108.229 28.5244 108.855 28.5244C109.481 28.5244 110.047 28.6388 110.553 28.8676C111.071 29.0963 111.516 29.4274 111.889 29.8609C112.263 30.2823 112.552 30.794 112.756 31.396C112.961 31.998 113.063 32.6662 113.063 33.4007C113.063 34.1472 112.961 34.8214 112.756 35.4234C112.552 36.0134 112.263 36.5251 111.889 36.9586C111.516 37.38 111.071 37.7051 110.553 37.9338C110.047 38.1626 109.481 38.277 108.855 38.277ZM108.855 36.9947C109.638 36.9947 110.276 36.7539 110.77 36.2723C111.263 35.7907 111.51 35.0562 111.51 34.0689V32.7325C111.51 31.7452 111.263 31.0107 110.77 30.5291C110.276 30.0475 109.638 29.8067 108.855 29.8067C108.073 29.8067 107.435 30.0475 106.941 30.5291C106.447 31.0107 106.2 31.7452 106.2 32.7325V34.0689C106.2 35.0562 106.447 35.7907 106.941 36.2723C107.435 36.7539 108.073 36.9947 108.855 36.9947ZM118.735 38.277C117.869 38.277 117.14 38.1144 116.55 37.7893C115.972 37.4522 115.473 37.0067 115.051 36.4529L116.081 35.6221C116.442 36.0796 116.845 36.4348 117.291 36.6877C117.736 36.9285 118.254 37.0489 118.844 37.0489C119.458 37.0489 119.933 36.9164 120.271 36.6515C120.62 36.3867 120.794 36.0134 120.794 35.5318C120.794 35.1706 120.674 34.8636 120.433 34.6107C120.204 34.3459 119.783 34.1652 119.169 34.0689L118.428 33.9606C117.995 33.9004 117.598 33.8101 117.236 33.6897C116.875 33.5572 116.556 33.3887 116.279 33.184C116.014 32.9673 115.804 32.7024 115.647 32.3893C115.503 32.0763 115.43 31.703 115.43 31.2696C115.43 30.8121 115.515 30.4147 115.683 30.0776C115.852 29.7285 116.081 29.4395 116.37 29.2107C116.671 28.982 117.026 28.8134 117.435 28.705C117.845 28.5846 118.284 28.5244 118.754 28.5244C119.512 28.5244 120.144 28.6569 120.65 28.9218C121.168 29.1866 121.619 29.5539 122.004 30.0234L121.047 30.8903C120.843 30.6014 120.542 30.3425 120.144 30.1137C119.747 29.8729 119.247 29.7525 118.645 29.7525C118.043 29.7525 117.586 29.885 117.273 30.1499C116.972 30.4027 116.821 30.7519 116.821 31.1974C116.821 31.6549 116.972 31.986 117.273 32.1907C117.586 32.3953 118.031 32.5458 118.609 32.6422L119.331 32.7505C120.367 32.9071 121.101 33.2081 121.535 33.6535C121.968 34.087 122.185 34.6589 122.185 35.3693C122.185 36.2723 121.878 36.9826 121.264 37.5004C120.65 38.0181 119.807 38.277 118.735 38.277ZM135.958 36.5432H135.886C135.32 37.699 134.411 38.277 133.159 38.277C132.581 38.277 132.057 38.1626 131.588 37.9338C131.118 37.7051 130.715 37.38 130.378 36.9586C130.053 36.5372 129.8 36.0255 129.619 35.4234C129.451 34.8214 129.366 34.1472 129.366 33.4007C129.366 32.6542 129.451 31.98 129.619 31.378C129.8 30.7759 130.053 30.2642 130.378 29.8428C130.715 29.4214 131.118 29.0963 131.588 28.8676C132.057 28.6388 132.581 28.5244 133.159 28.5244C133.809 28.5244 134.363 28.6689 134.821 28.9579C135.29 29.2348 135.645 29.6682 135.886 30.2582H135.958V24.6957H137.403V38.0602H135.958V36.5432ZM133.556 36.9766C133.881 36.9766 134.188 36.9345 134.477 36.8502C134.778 36.7659 135.037 36.6455 135.254 36.489C135.471 36.3204 135.639 36.1218 135.76 35.893C135.892 35.6522 135.958 35.3813 135.958 35.0803V31.6127C135.958 31.3599 135.892 31.1251 135.76 30.9084C135.639 30.6796 135.471 30.487 135.254 30.3305C135.037 30.1739 134.778 30.0535 134.477 29.9693C134.188 29.8729 133.881 29.8248 133.556 29.8248C132.738 29.8248 132.093 30.0836 131.624 30.6014C131.154 31.107 130.92 31.7753 130.92 32.606V34.1954C130.92 35.0261 131.154 35.7004 131.624 36.2181C132.093 36.7238 132.738 36.9766 133.556 36.9766ZM144.493 38.277C143.867 38.277 143.295 38.1626 142.777 37.9338C142.26 37.7051 141.814 37.38 141.441 36.9586C141.08 36.5251 140.797 36.0134 140.592 35.4234C140.388 34.8214 140.285 34.1472 140.285 33.4007C140.285 32.6662 140.388 31.998 140.592 31.396C140.797 30.794 141.08 30.2823 141.441 29.8609C141.814 29.4274 142.26 29.0963 142.777 28.8676C143.295 28.6388 143.867 28.5244 144.493 28.5244C145.119 28.5244 145.685 28.6388 146.191 28.8676C146.709 29.0963 147.154 29.4274 147.527 29.8609C147.901 30.2823 148.19 30.794 148.394 31.396C148.599 31.998 148.701 32.6662 148.701 33.4007C148.701 34.1472 148.599 34.8214 148.394 35.4234C148.19 36.0134 147.901 36.5251 147.527 36.9586C147.154 37.38 146.709 37.7051 146.191 37.9338C145.685 38.1626 145.119 38.277 144.493 38.277ZM144.493 36.9947C145.276 36.9947 145.914 36.7539 146.408 36.2723C146.901 35.7907 147.148 35.0562 147.148 34.0689V32.7325C147.148 31.7452 146.901 31.0107 146.408 30.5291C145.914 30.0475 145.276 29.8067 144.493 29.8067C143.711 29.8067 143.072 30.0475 142.579 30.5291C142.085 31.0107 141.838 31.7452 141.838 32.7325V34.0689C141.838 35.0562 142.085 35.7907 142.579 36.2723C143.072 36.7539 143.711 36.9947 144.493 36.9947ZM159.806 38.277C159.156 38.277 158.572 38.1626 158.055 37.9338C157.537 37.7051 157.097 37.38 156.736 36.9586C156.387 36.5372 156.116 36.0255 155.924 35.4234C155.743 34.8214 155.653 34.1472 155.653 33.4007C155.653 32.6542 155.743 31.98 155.924 31.378C156.116 30.7759 156.387 30.2642 156.736 29.8428C157.097 29.4214 157.537 29.0963 158.055 28.8676C158.572 28.6388 159.156 28.5244 159.806 28.5244C160.734 28.5244 161.474 28.7291 162.028 29.1385C162.594 29.5358 163.015 30.0596 163.292 30.7097L162.082 31.3238C161.913 30.8422 161.637 30.4689 161.251 30.204C160.866 29.9392 160.384 29.8067 159.806 29.8067C159.373 29.8067 158.994 29.879 158.669 30.0234C158.344 30.1559 158.073 30.3485 157.856 30.6014C157.639 30.8422 157.477 31.1371 157.368 31.4863C157.26 31.8234 157.206 32.1967 157.206 32.606V34.1954C157.206 35.0141 157.423 35.6883 157.856 36.2181C158.301 36.7358 158.952 36.9947 159.806 36.9947C160.974 36.9947 161.817 36.4529 162.335 35.3693L163.382 36.0736C163.081 36.7479 162.63 37.2837 162.028 37.681C161.438 38.0783 160.697 38.277 159.806 38.277ZM165.919 38.0602V28.7412H167.363V30.4569H167.454C167.622 30.0114 167.923 29.6141 168.357 29.2649C168.79 28.9157 169.386 28.7412 170.145 28.7412H170.705V30.186H169.856C169.073 30.186 168.459 30.3365 168.014 30.6375C167.58 30.9264 167.363 31.2937 167.363 31.7392V38.0602H165.919ZM176.462 38.277C175.824 38.277 175.246 38.1626 174.728 37.9338C174.223 37.7051 173.783 37.38 173.41 36.9586C173.049 36.5251 172.766 36.0134 172.561 35.4234C172.369 34.8214 172.272 34.1472 172.272 33.4007C172.272 32.6662 172.369 31.998 172.561 31.396C172.766 30.794 173.049 30.2823 173.41 29.8609C173.783 29.4274 174.223 29.0963 174.728 28.8676C175.246 28.6388 175.824 28.5244 176.462 28.5244C177.088 28.5244 177.648 28.6388 178.142 28.8676C178.635 29.0963 179.057 29.4154 179.406 29.8248C179.755 30.2221 180.02 30.6977 180.201 31.2515C180.393 31.8054 180.49 32.4134 180.49 33.0756V33.7619H173.789V34.1954C173.789 34.5927 173.85 34.9659 173.97 35.3151C174.102 35.6522 174.283 35.9472 174.512 36.2C174.753 36.4529 175.041 36.6515 175.379 36.796C175.728 36.9405 176.119 37.0127 176.553 37.0127C177.143 37.0127 177.654 36.8743 178.088 36.5974C178.533 36.3204 178.876 35.9231 179.117 35.4054L180.147 36.1459C179.846 36.784 179.376 37.3017 178.738 37.699C178.1 38.0843 177.341 38.277 176.462 38.277ZM176.462 29.7345C176.065 29.7345 175.704 29.8067 175.379 29.9512C175.054 30.0836 174.771 30.2763 174.53 30.5291C174.301 30.782 174.12 31.083 173.988 31.4321C173.856 31.7693 173.789 32.1425 173.789 32.5519V32.6783H178.936V32.4796C178.936 31.6489 178.708 30.9866 178.25 30.493C177.805 29.9873 177.209 29.7345 176.462 29.7345ZM176.607 27.495L175.668 27.0616L177.203 23.9913L178.521 24.6234L176.607 27.495ZM189.327 36.5432H189.255C188.689 37.699 187.78 38.277 186.528 38.277C185.95 38.277 185.426 38.1626 184.956 37.9338C184.487 37.7051 184.084 37.38 183.746 36.9586C183.421 36.5372 183.169 36.0255 182.988 35.4234C182.819 34.8214 182.735 34.1472 182.735 33.4007C182.735 32.6542 182.819 31.98 182.988 31.378C183.169 30.7759 183.421 30.2642 183.746 29.8428C184.084 29.4214 184.487 29.0963 184.956 28.8676C185.426 28.6388 185.95 28.5244 186.528 28.5244C187.178 28.5244 187.732 28.6689 188.189 28.9579C188.659 29.2348 189.014 29.6682 189.255 30.2582H189.327V24.6957H190.772V38.0602H189.327V36.5432ZM186.925 36.9766C187.25 36.9766 187.557 36.9345 187.846 36.8502C188.147 36.7659 188.406 36.6455 188.623 36.489C188.839 36.3204 189.008 36.1218 189.128 35.893C189.261 35.6522 189.327 35.3813 189.327 35.0803V31.6127C189.327 31.3599 189.261 31.1251 189.128 30.9084C189.008 30.6796 188.839 30.487 188.623 30.3305C188.406 30.1739 188.147 30.0535 187.846 29.9693C187.557 29.8729 187.25 29.8248 186.925 29.8248C186.106 29.8248 185.462 30.0836 184.993 30.6014C184.523 31.107 184.288 31.7753 184.288 32.606V34.1954C184.288 35.0261 184.523 35.7004 184.993 36.2181C185.462 36.7238 186.106 36.9766 186.925 36.9766ZM195.063 26.5559C194.75 26.5559 194.521 26.4836 194.376 26.3391C194.244 26.1826 194.178 25.984 194.178 25.7432V25.5084C194.178 25.2676 194.244 25.0749 194.376 24.9304C194.521 24.7739 194.75 24.6957 195.063 24.6957C195.376 24.6957 195.598 24.7739 195.731 24.9304C195.875 25.0749 195.948 25.2676 195.948 25.5084V25.7432C195.948 25.984 195.875 26.1826 195.731 26.3391C195.598 26.4836 195.376 26.5559 195.063 26.5559ZM194.34 28.7412H195.785V38.0602H194.34V28.7412ZM201.411 38.0602C200.905 38.0602 200.52 37.9218 200.255 37.6449C200.002 37.3559 199.876 36.9826 199.876 36.5251V30.0054H198.341V28.7412H199.207C199.52 28.7412 199.731 28.681 199.84 28.5606C199.96 28.4281 200.02 28.2054 200.02 27.8923V26.1585H201.32V28.7412H203.361V30.0054H201.32V36.796H203.217V38.0602H201.411ZM209.631 38.277C209.005 38.277 208.433 38.1626 207.916 37.9338C207.398 37.7051 206.952 37.38 206.579 36.9586C206.218 36.5251 205.935 36.0134 205.73 35.4234C205.526 34.8214 205.423 34.1472 205.423 33.4007C205.423 32.6662 205.526 31.998 205.73 31.396C205.935 30.794 206.218 30.2823 206.579 29.8609C206.952 29.4274 207.398 29.0963 207.916 28.8676C208.433 28.6388 209.005 28.5244 209.631 28.5244C210.257 28.5244 210.823 28.6388 211.329 28.8676C211.847 29.0963 212.292 29.4274 212.666 29.8609C213.039 30.2823 213.328 30.794 213.532 31.396C213.737 31.998 213.839 32.6662 213.839 33.4007C213.839 34.1472 213.737 34.8214 213.532 35.4234C213.328 36.0134 213.039 36.5251 212.666 36.9586C212.292 37.38 211.847 37.7051 211.329 37.9338C210.823 38.1626 210.257 38.277 209.631 38.277ZM209.631 36.9947C210.414 36.9947 211.052 36.7539 211.546 36.2723C212.039 35.7907 212.286 35.0562 212.286 34.0689V32.7325C212.286 31.7452 212.039 31.0107 211.546 30.5291C211.052 30.0475 210.414 29.8067 209.631 29.8067C208.849 29.8067 208.211 30.0475 207.717 30.5291C207.223 31.0107 206.977 31.7452 206.977 32.7325V34.0689C206.977 35.0562 207.223 35.7907 207.717 36.2723C208.211 36.7539 208.849 36.9947 209.631 36.9947Z" fill="#263238"/>
<path d="M19.5299 64.1506V53.1203H26.2618V54.2897H20.8573V57.9875H25.9458V59.1569H20.8573V62.9812H26.2618V64.1506H19.5299ZM28.8988 64.1506V55.9964H30.163V57.3238H30.2262C30.321 57.1131 30.4264 56.9182 30.5422 56.7391C30.6687 56.5495 30.8162 56.3862 30.9847 56.2492C31.1638 56.1123 31.3693 56.0069 31.601 55.9332C31.8328 55.8489 32.1067 55.8068 32.4228 55.8068C32.9601 55.8068 33.4552 55.9385 33.9082 56.2018C34.3612 56.4547 34.6984 56.8761 34.9196 57.4661H34.9512C35.0987 57.0236 35.3726 56.639 35.7729 56.3125C36.1838 55.9753 36.7369 55.8068 37.4322 55.8068C38.2645 55.8068 38.9124 56.0807 39.376 56.6285C39.85 57.1658 40.0871 57.9296 40.0871 58.9199V64.1506H38.8229V59.1411C38.8229 58.4142 38.6806 57.8664 38.3962 57.4977C38.1117 57.1289 37.6587 56.9446 37.0372 56.9446C36.7843 56.9446 36.542 56.9762 36.3102 57.0394C36.089 57.1026 35.8888 57.1974 35.7097 57.3238C35.5306 57.4503 35.3884 57.6135 35.2831 57.8137C35.1777 58.0033 35.125 58.2299 35.125 58.4932V64.1506H33.8608V59.1411C33.8608 58.4142 33.7186 57.8664 33.4341 57.4977C33.1497 57.1289 32.7072 56.9446 32.1067 56.9446C31.8539 56.9446 31.6116 56.9762 31.3798 57.0394C31.148 57.1026 30.9426 57.1974 30.7635 57.3238C30.5844 57.4503 30.4369 57.6135 30.321 57.8137C30.2157 58.0033 30.163 58.2299 30.163 58.4932V64.1506H28.8988ZM54.0265 64.1506L52.9203 60.8952H48.4639L47.3577 64.1506H46.0145L49.8704 53.1203H51.5613L55.4171 64.1506H54.0265ZM50.7237 54.3529H50.6447L48.78 59.7258H52.5884L50.7237 54.3529ZM57.4001 64.1506V55.9964H58.6643V57.3238H58.7275C58.9277 56.8603 59.2069 56.4916 59.5651 56.2176C59.9338 55.9437 60.4237 55.8068 61.0347 55.8068C61.8775 55.8068 62.5412 56.0807 63.0258 56.6285C63.521 57.1658 63.7686 57.9296 63.7686 58.9199V64.1506H62.5044V59.1411C62.5044 57.6768 61.8881 56.9446 60.6554 56.9446C60.4026 56.9446 60.155 56.9762 59.9127 57.0394C59.6809 57.1026 59.4702 57.1974 59.2806 57.3238C59.091 57.4503 58.9382 57.6135 58.8223 57.8137C58.717 58.0033 58.6643 58.2299 58.6643 58.4932V64.1506H57.4001ZM71.8788 62.8232H71.8156C71.3204 63.8346 70.525 64.3402 69.4294 64.3402C68.9237 64.3402 68.4654 64.2402 68.0545 64.04C67.6437 63.8398 67.2907 63.5554 66.9957 63.1866C66.7113 62.8179 66.4901 62.3702 66.332 61.8434C66.1845 61.3167 66.1108 60.7267 66.1108 60.0735C66.1108 59.4203 66.1845 58.8304 66.332 58.3036C66.4901 57.7768 66.7113 57.3291 66.9957 56.9604C67.2907 56.5916 67.6437 56.3072 68.0545 56.107C68.4654 55.9069 68.9237 55.8068 69.4294 55.8068C69.9983 55.8068 70.4829 55.9332 70.8832 56.186C71.2941 56.4283 71.6049 56.8076 71.8156 57.3238H71.8788V52.4566H73.143V64.1506H71.8788V62.8232ZM69.777 63.2024C70.0615 63.2024 70.3301 63.1656 70.583 63.0918C70.8463 63.0181 71.0728 62.9127 71.2625 62.7758C71.4521 62.6283 71.5996 62.4544 71.705 62.2543C71.8208 62.0436 71.8788 61.8065 71.8788 61.5432V58.509C71.8788 58.2878 71.8208 58.0824 71.705 57.8927C71.5996 57.6926 71.4521 57.524 71.2625 57.387C71.0728 57.2501 70.8463 57.1447 70.583 57.071C70.3301 56.9867 70.0615 56.9446 69.777 56.9446C69.0606 56.9446 68.497 57.1711 68.0861 57.6241C67.6753 58.0666 67.4698 58.6513 67.4698 59.3782V60.7688C67.4698 61.4957 67.6753 62.0857 68.0861 62.5387C68.497 62.9812 69.0606 63.2024 69.777 63.2024ZM82.0389 64.1506C81.5648 64.1506 81.2224 64.0242 81.0117 63.7713C80.8116 63.5185 80.6851 63.2024 80.6325 62.8232H80.5534C80.3744 63.3289 80.0794 63.7081 79.6685 63.961C79.2576 64.2138 78.7677 64.3402 78.1988 64.3402C77.335 64.3402 76.6607 64.119 76.1761 63.6765C75.702 63.234 75.465 62.6335 75.465 61.875C75.465 61.1059 75.7442 60.516 76.3025 60.1051C76.8714 59.6942 77.7511 59.4888 78.9416 59.4888H80.5534V58.6829C80.5534 58.1034 80.3954 57.661 80.0794 57.3554C79.7633 57.0499 79.2787 56.8972 78.6255 56.8972C78.1304 56.8972 77.7142 57.0078 77.3771 57.229C77.0505 57.4503 76.7766 57.7452 76.5554 58.114L75.7968 57.4028C76.0181 56.9604 76.371 56.5864 76.8556 56.2809C77.3402 55.9648 77.9513 55.8068 78.6887 55.8068C79.679 55.8068 80.4481 56.0491 80.9959 56.5337C81.5438 57.0183 81.8177 57.6926 81.8177 58.5564V63.0444H82.75V64.1506H82.0389ZM78.4043 63.2657C78.7203 63.2657 79.0101 63.2288 79.2734 63.155C79.5368 63.0813 79.7633 62.9759 79.9529 62.839C80.1426 62.702 80.2901 62.544 80.3954 62.3649C80.5008 62.1858 80.5534 61.9909 80.5534 61.7802V60.437H78.8784C78.1514 60.437 77.6194 60.5423 77.2823 60.753C76.9557 60.9637 76.7924 61.2692 76.7924 61.6696V62.0014C76.7924 62.4018 76.9346 62.7126 77.2191 62.9338C77.5141 63.155 77.9091 63.2657 78.4043 63.2657ZM84.8366 64.1506V55.9964H86.1008V57.3238H86.164C86.2588 57.1131 86.3642 56.9182 86.48 56.7391C86.6065 56.5495 86.754 56.3862 86.9225 56.2492C87.1016 56.1123 87.3071 56.0069 87.5388 55.9332C87.7706 55.8489 88.0445 55.8068 88.3606 55.8068C88.8979 55.8068 89.393 55.9385 89.846 56.2018C90.299 56.4547 90.6362 56.8761 90.8574 57.4661H90.889C91.0365 57.0236 91.3104 56.639 91.7107 56.3125C92.1216 55.9753 92.6747 55.8068 93.37 55.8068C94.2023 55.8068 94.8502 56.0807 95.3138 56.6285C95.7878 57.1658 96.0249 57.9296 96.0249 58.9199V64.1506H94.7607V59.1411C94.7607 58.4142 94.6184 57.8664 94.334 57.4977C94.0495 57.1289 93.5965 56.9446 92.975 56.9446C92.7221 56.9446 92.4798 56.9762 92.248 57.0394C92.0268 57.1026 91.8266 57.1974 91.6475 57.3238C91.4684 57.4503 91.3262 57.6135 91.2209 57.8137C91.1155 58.0033 91.0628 58.2299 91.0628 58.4932V64.1506H89.7986V59.1411C89.7986 58.4142 89.6564 57.8664 89.3719 57.4977C89.0875 57.1289 88.645 56.9446 88.0445 56.9446C87.7917 56.9446 87.5494 56.9762 87.3176 57.0394C87.0858 57.1026 86.8804 57.1974 86.7013 57.3238C86.5222 57.4503 86.3747 57.6135 86.2588 57.8137C86.1535 58.0033 86.1008 58.2299 86.1008 58.4932V64.1506H84.8366ZM101.981 64.3402C101.423 64.3402 100.917 64.2402 100.464 64.04C100.021 63.8398 99.6369 63.5554 99.3103 63.1866C98.9943 62.8074 98.7467 62.3596 98.5676 61.8434C98.399 61.3167 98.3148 60.7267 98.3148 60.0735C98.3148 59.4309 98.399 58.8462 98.5676 58.3194C98.7467 57.7926 98.9943 57.3449 99.3103 56.9762C99.6369 56.5969 100.021 56.3072 100.464 56.107C100.917 55.9069 101.423 55.8068 101.981 55.8068C102.529 55.8068 103.019 55.9069 103.451 56.107C103.883 56.3072 104.251 56.5864 104.557 56.9446C104.862 57.2922 105.094 57.7084 105.252 58.193C105.421 58.6776 105.505 59.2096 105.505 59.7891V60.3896H99.6422V60.7688C99.6422 61.1165 99.6949 61.4431 99.8002 61.7486C99.9161 62.0436 100.074 62.3017 100.274 62.5229C100.485 62.7442 100.738 62.918 101.033 63.0444C101.338 63.1708 101.681 63.234 102.06 63.234C102.576 63.234 103.024 63.1129 103.403 62.8706C103.793 62.6283 104.093 62.2806 104.304 61.8276L105.205 62.4755C104.941 63.0339 104.53 63.4869 103.972 63.8346C103.414 64.1717 102.75 64.3402 101.981 64.3402ZM101.981 56.8656C101.633 56.8656 101.317 56.9288 101.033 57.0552C100.748 57.1711 100.501 57.3396 100.29 57.5609C100.09 57.7821 99.9319 58.0455 99.816 58.351C99.7001 58.646 99.6422 58.9726 99.6422 59.3308V59.4414H104.146V59.2676C104.146 58.5406 103.946 57.9612 103.545 57.5293C103.156 57.0868 102.634 56.8656 101.981 56.8656ZM107.87 64.1506V55.9964H109.135V57.3238H109.198C109.398 56.8603 109.677 56.4916 110.035 56.2176C110.404 55.9437 110.894 55.8068 111.505 55.8068C112.348 55.8068 113.012 56.0807 113.496 56.6285C113.991 57.1658 114.239 57.9296 114.239 58.9199V64.1506H112.975V59.1411C112.975 57.6768 112.358 56.9446 111.126 56.9446C110.873 56.9446 110.625 56.9762 110.383 57.0394C110.151 57.1026 109.941 57.1974 109.751 57.3238C109.561 57.4503 109.409 57.6135 109.293 57.8137C109.187 58.0033 109.135 58.2299 109.135 58.4932V64.1506H107.87ZM118.936 64.1506C118.493 64.1506 118.156 64.0295 117.924 63.7871C117.703 63.5343 117.593 63.2077 117.593 62.8074V57.1026H116.249V55.9964H117.008C117.282 55.9964 117.466 55.9437 117.561 55.8384C117.666 55.7225 117.719 55.5276 117.719 55.2537V53.7366H118.857V55.9964H120.642V57.1026H118.857V63.0444H120.516V64.1506H118.936ZM125.976 64.3402C125.429 64.3402 124.928 64.2402 124.475 64.04C124.022 63.8398 123.632 63.5554 123.306 63.1866C122.99 62.8074 122.742 62.3596 122.563 61.8434C122.384 61.3167 122.294 60.7267 122.294 60.0735C122.294 59.4309 122.384 58.8462 122.563 58.3194C122.742 57.7926 122.99 57.3449 123.306 56.9762C123.632 56.5969 124.022 56.3072 124.475 56.107C124.928 55.9069 125.429 55.8068 125.976 55.8068C126.524 55.8068 127.019 55.9069 127.462 56.107C127.915 56.3072 128.305 56.5969 128.631 56.9762C128.958 57.3449 129.211 57.7926 129.39 58.3194C129.569 58.8462 129.658 59.4309 129.658 60.0735C129.658 60.7267 129.569 61.3167 129.39 61.8434C129.211 62.3596 128.958 62.8074 128.631 63.1866C128.305 63.5554 127.915 63.8398 127.462 64.04C127.019 64.2402 126.524 64.3402 125.976 64.3402ZM125.976 63.2182C126.661 63.2182 127.22 63.0075 127.652 62.5861C128.083 62.1647 128.299 61.5221 128.299 60.6582V59.4888C128.299 58.6249 128.083 57.9823 127.652 57.5609C127.22 57.1395 126.661 56.9288 125.976 56.9288C125.292 56.9288 124.733 57.1395 124.301 57.5609C123.869 57.9823 123.653 58.6249 123.653 59.4888V60.6582C123.653 61.5221 123.869 62.1647 124.301 62.5861C124.733 63.0075 125.292 63.2182 125.976 63.2182Z" fill="#607D8B"/>
<rect x="42.866" y="108.797" width="233" height="233" rx="116.5" fill="#855CF8"/>
<g style="mix-blend-mode:overlay">
<path d="M159.129 225.06H275.392C275.392 257.075 262.148 286.06 241.109 307.04L159.129 225.06Z" fill="#ACB9FF"/>
</g>
<g opacity="0.4">
<path d="M159.129 225.06H275.392C275.392 193.045 262.148 164.061 241.109 143.08L159.129 225.06Z" fill="black"/>
</g>
<path d="M159.129 225.06V108.797C191.144 108.797 220.128 122.041 241.109 143.08L159.129 225.06Z" fill="#E289F2"/>
</svg>
